<svg width="33" height="32" viewBox="0 0 33 32" fill="none" xmlns="http://www.w3.org/2000/svg">
<path d="M12.0984 29.6533C13.2276 29.6533 14.1429 28.6753 14.1429 27.4688C14.1429 26.2623 13.2276 25.2843 12.0984 25.2843C10.9693 25.2843 10.054 26.2623 10.054 27.4688C10.054 28.6753 10.9693 29.6533 12.0984 29.6533Z" fill="#3985C6"/>
<path d="M25.3876 29.6533C26.5168 29.6533 27.4321 28.6753 27.4321 27.4688C27.4321 26.2623 26.5168 25.2843 25.3876 25.2843C24.2585 25.2843 23.3431 26.2623 23.3431 27.4688C23.3431 28.6753 24.2585 29.6533 25.3876 29.6533Z" fill="#3985C6"/>
<path d="M7.28118 7.808H30.205L26.8316 20.4237C26.7112 20.8815 26.4535 21.2845 26.098 21.5706C25.7425 21.8568 25.3088 22.0102 24.8638 22.0075H12.6224C12.1773 22.0102 11.7437 21.8568 11.3882 21.5706C11.0327 21.2845 10.7749 20.8815 10.6546 20.4237L6.02893 3.13856C5.96781 2.91021 5.83869 2.70938 5.66115 2.56648C5.4836 2.42358 5.2673 2.34641 5.04503 2.34667H2.89832" stroke="#3985C6" stroke-width="1.5" stroke-linecap="round" stroke-linejoin="round"/>
</svg>
