<svg width="20" height="19" viewBox="0 0 20 19" fill="none" xmlns="http://www.w3.org/2000/svg">
<path d="M7.21677 18.5333C7.92248 18.5333 8.49457 17.9221 8.49457 17.168C8.49457 16.414 7.92248 15.8027 7.21677 15.8027C6.51106 15.8027 5.93896 16.414 5.93896 17.168C5.93896 17.9221 6.51106 18.5333 7.21677 18.5333Z" fill="white"/>
<path d="M15.5226 18.5333C16.2283 18.5333 16.8004 17.9221 16.8004 17.168C16.8004 16.414 16.2283 15.8027 15.5226 15.8027C14.8168 15.8027 14.2448 16.414 14.2448 17.168C14.2448 17.9221 14.8168 18.5333 15.5226 18.5333Z" fill="white"/>
<path d="M4.20597 4.88001H18.5333L16.425 12.7648C16.3497 13.051 16.1887 13.3028 15.9665 13.4816C15.7443 13.6605 15.4733 13.7564 15.1951 13.7547H7.54423C7.26606 13.7564 6.99505 13.6605 6.77285 13.4816C6.55066 13.3028 6.38957 13.051 6.31434 12.7648L3.42331 1.96161C3.38511 1.81889 3.30441 1.69337 3.19344 1.60406C3.08248 1.51475 2.94729 1.46652 2.80837 1.46668H1.46667" stroke="white" stroke-width="2" stroke-linecap="round" stroke-linejoin="round"/>
</svg>
