<svg width="38" height="36" viewBox="0 0 38 36" fill="none" xmlns="http://www.w3.org/2000/svg">
<path d="M10.702 33.1534C11.8311 33.1534 12.7464 32.1753 12.7464 30.9688C12.7464 29.7623 11.8311 28.7843 10.702 28.7843C9.57282 28.7843 8.65747 29.7623 8.65747 30.9688C8.65747 32.1753 9.57282 33.1534 10.702 33.1534Z" fill="#3985C6"/>
<path d="M23.9911 33.1534C25.1203 33.1534 26.0356 32.1753 26.0356 30.9688C26.0356 29.7623 25.1203 28.7843 23.9911 28.7843C22.862 28.7843 21.9467 29.7623 21.9467 30.9688C21.9467 32.1753 22.862 33.1534 23.9911 33.1534Z" fill="#3985C6"/>
<path d="M5.8847 11.308H28.8085L25.4351 23.9237C25.3147 24.3815 25.057 24.7845 24.7015 25.0706C24.346 25.3568 23.9124 25.5102 23.4673 25.5075H11.2259C10.7808 25.5102 10.3472 25.3568 9.99172 25.0706C9.6362 24.7845 9.37846 24.3815 9.2581 23.9237L4.63245 6.63857C4.57132 6.41023 4.44221 6.20939 4.26466 6.06649C4.08712 5.9236 3.87082 5.84643 3.64854 5.84668H1.50183" stroke="#3985C6" stroke-width="1.5" stroke-linecap="round" stroke-linejoin="round"/>
<path d="M28.8084 11.308H5.88464L6.15509 12L9.25804 23.9237C9.37841 24.3815 9.63615 24.7845 9.99166 25.0706C10.3472 25.3568 10.7808 25.5102 11.2259 25.5075H23.4672C23.9123 25.5102 24.3459 25.3568 24.7014 25.0706C25.0569 24.7845 25.3147 24.3815 25.435 23.9237L28.8084 11.308Z" fill="#3985C6" stroke="#3985C6" stroke-width="1.5" stroke-linecap="round" stroke-linejoin="round"/>
<circle cx="28.1552" cy="9.5" r="8" fill="#3985C6" stroke="white" stroke-width="2"/>
<g clip-path="url(#clip0_2_1142)">
<path d="M25.8218 9.5L27.4884 11.1667L30.8218 7.83334" stroke="white" stroke-width="1.5" stroke-linecap="round" stroke-linejoin="round"/>
</g>
<defs>
<clipPath id="clip0_2_1142">
<rect width="8" height="8" fill="white" transform="translate(24.1552 5.5)"/>
</clipPath>
</defs>
</svg>
